<?xml version="1.0" encoding="UTF-8"?>
<svg id="Layer_2" data-name="Layer 2" xmlns="http://www.w3.org/2000/svg" viewBox="0 0 1009 1000">
  <defs>
    <style>
      .cls-1 {
        fill: #fff;
      }

      .cls-2 {
        fill: #00bf2b;
      }
    </style>
  </defs>
  <path class="cls-1" d="M911.87,135.28c-12.79-12.79-27.72-19.19-44.79-19.19H141.92c-17.07,0-32,6.4-44.79,19.19s-19.2,27.73-19.2,44.79v469.23c0,17.06,6.4,31.99,19.2,44.79,12.79,12.8,27.72,19.2,44.79,19.2h298.59v106.64h-91.71v63.98h311.4v-63.98h-91.71v-106.64h298.59c17.07,0,32-6.4,44.79-19.2,12.8-12.8,19.2-27.73,19.2-44.79V180.07c0-17.06-6.4-31.99-19.2-44.79ZM867.08,649.3H141.92V180.07h725.16v469.23Z"/>
  <path d="M867.08,181.62v469.23H141.92V181.62h725.16Z"/>
  <path class="cls-2" d="M566.18,601.66l-33.15-32.38,129.53-129.53h-404.78v-46.26h404.78l-130.3-130.3,33.15-32.38,185.81,185.81-185.04,185.04Z"/>
  <g>
    <path class="cls-1" d="M187.41,336.93v-104.33h28.81c18.38,0,32.17,4.23,41.36,12.7,9.19,8.46,13.79,21.18,13.79,38.16,0,16.1-5.11,29.04-15.31,38.81-10.21,9.77-23.88,14.66-41,14.66h-27.65ZM199.63,243.66v82.21h15.57c13.68,0,24.32-3.66,31.94-10.99,7.61-7.32,11.42-17.7,11.42-31.14s-3.55-23.41-10.66-30.08c-7.11-6.67-17.76-10-31.98-10h-16.3Z"/>
    <path class="cls-1" d="M350.16,302.37h-52.67c.19,8.39,2.41,14.85,6.66,19.39,4.24,4.54,10.2,6.8,17.86,6.8,3.35,0,6.7-.5,10.08-1.49,3.37-.99,6.71-2.58,10-4.77l5.53,8.51c-4.22,2.72-8.44,4.71-12.66,5.97s-8.85,1.89-13.9,1.89c-11.25,0-20.03-3.35-26.34-10.04-6.31-6.69-9.48-16.03-9.53-28.01-.05-11.98,3.12-21.63,9.49-28.96,6.38-7.32,14.66-10.99,24.85-10.99s17.23,3.17,22.59,9.49c5.36,6.33,8.04,15.1,8.04,26.3v5.89ZM337.93,292.62c-.05-6.89-1.72-12.26-5.02-16.11-3.3-3.86-7.83-5.78-13.6-5.78s-10.49,1.98-14.44,5.93-6.37,9.28-7.24,15.97h40.31Z"/>
    <path class="cls-1" d="M361.21,331.33l5.67-9.17c3.25,2.13,6.43,3.75,9.53,4.84,3.1,1.09,6.45,1.64,10.04,1.64,5.09,0,8.96-.95,11.6-2.84,2.64-1.89,3.97-4.73,3.97-8.51,0-3.06-1.18-5.64-3.53-7.75-2.35-2.11-6.03-3.79-11.02-5.06-9.31-2.38-15.69-5.37-19.13-8.99-3.44-3.61-5.17-8.06-5.17-13.35,0-6.11,2.3-11.22,6.91-15.31,4.61-4.1,11.03-6.15,19.28-6.15,3.98,0,7.76.51,11.35,1.53,3.59,1.02,7.25,2.76,10.99,5.24l-5.31,9.02c-3.4-2.13-6.44-3.62-9.13-4.47-2.69-.85-5.42-1.27-8.19-1.27-4.8,0-8.46.89-10.99,2.66-2.52,1.77-3.78,4.33-3.78,7.68s1.3,5.87,3.89,7.57c2.59,1.7,6.78,3.3,12.55,4.8,7.57,2.04,13.23,4.89,16.99,8.55,3.76,3.66,5.64,8.45,5.64,14.37,0,6.89-2.44,12.33-7.31,16.33-4.87,4-11.56,6-20.04,6-4.56,0-8.94-.63-13.13-1.89-4.2-1.26-8.09-3.08-11.68-5.46Z"/>
    <path class="cls-1" d="M493.26,336.93h-16.73l-32.88-35.79h-.29v35.79h-11.93v-110.29h11.93v69.92h.29l31.28-34.12h15.64l-34.56,35.94,37.25,38.56Z"/>
  </g>
  <g>
    <path class="cls-1" d="M173.73,593.66l5.97-9.17c4.27,2.76,8.54,4.78,12.8,6.04,4.27,1.26,9.24,1.89,14.91,1.89,6.35,0,11.58-1.49,15.68-4.47,4.1-2.98,6.15-7.34,6.15-13.06,0-5.09-1.73-9.17-5.2-12.22-3.47-3.06-9.16-6.01-17.06-8.88-9.8-3.54-17.06-7.53-21.79-11.97-4.73-4.44-7.09-10.29-7.09-17.57,0-8.54,3.07-15.45,9.2-20.73,6.14-5.29,14.2-7.93,24.19-7.93,4.66,0,9.21.5,13.68,1.49,4.46,1,9.07,2.61,13.82,4.84l-4.58,9.82c-3.98-1.84-7.85-3.18-11.6-4-3.76-.82-7.82-1.24-12.19-1.24-6.26,0-11.2,1.47-14.84,4.4-3.64,2.94-5.46,7-5.46,12.19,0,4.56,1.67,8.2,5.02,10.91,3.35,2.72,8.92,5.48,16.73,8.29,10.48,3.78,17.99,8,22.55,12.66,4.56,4.66,6.84,10.94,6.84,18.84,0,8.44-3.06,15.49-9.17,21.14s-14.7,8.48-25.75,8.48c-6.21,0-11.93-.78-17.17-2.33s-10.45-4.03-15.64-7.42Z"/>
    <path class="cls-1" d="M312.69,597.22c-3.44,2.13-6.89,3.7-10.33,4.69-3.44.99-7.2,1.49-11.28,1.49-10.48,0-19.07-3.25-25.79-9.75-6.72-6.5-10.08-15.71-10.08-27.65s3.38-21.92,10.15-29.39c6.77-7.47,16.07-11.2,27.9-11.2,3.83,0,7.48.46,10.95,1.38,3.47.92,6.97,2.43,10.51,4.51l-5.02,8.73c-2.76-1.55-5.48-2.69-8.15-3.42-2.67-.73-5.58-1.09-8.73-1.09-8.2,0-14.48,2.74-18.84,8.22-4.37,5.48-6.55,12.44-6.55,20.88,0,9.31,2.29,16.42,6.88,21.32,4.58,4.9,10.51,7.35,17.79,7.35,2.38,0,4.86-.38,7.46-1.13,2.59-.75,5.2-1.93,7.82-3.53l5.31,8.59Z"/>
    <path class="cls-1" d="M360.27,603.41c-11.01,0-19.8-3.48-26.37-10.44-6.57-6.96-9.86-16.19-9.86-27.68,0-12.46,3.39-22.21,10.19-29.25,6.79-7.03,16.05-10.57,27.79-10.62,11.11-.05,19.78,3.37,26.01,10.26,6.23,6.89,9.35,16.37,9.35,28.45s-3.36,21.46-10.08,28.59c-6.72,7.13-15.73,10.7-27.03,10.7ZM361.14,593.37c7.71,0,13.64-2.51,17.79-7.53,4.15-5.02,6.22-12.11,6.22-21.28s-2.09-16.55-6.26-21.57c-4.17-5.02-10.09-7.53-17.75-7.53s-13.73,2.62-18.19,7.86c-4.46,5.24-6.69,12.42-6.69,21.54s2.26,15.79,6.77,20.88c4.51,5.09,10.55,7.64,18.12,7.64Z"/>
    <path class="cls-1" d="M476.68,601.66h-11.93v-11.79h-.29c-2.47,4.51-5.63,7.89-9.46,10.15-3.83,2.25-8.34,3.38-13.53,3.38-8.88,0-15.53-2.64-19.97-7.93-4.44-5.29-6.66-13.22-6.66-23.79v-44.53h11.86v42.63c0,7.86,1.5,13.75,4.51,17.68,3.01,3.93,7.52,5.89,13.53,5.89s10.61-2.15,14.37-6.44c3.76-4.29,5.64-9.91,5.64-16.84v-42.92h11.93v74.5Z"/>
    <path class="cls-1" d="M536.26,600.79c-2.04.83-4.04,1.44-6,1.86-1.96.41-4.18.62-6.66.62-5.92,0-10.56-1.73-13.93-5.2-3.37-3.47-5.06-8.6-5.06-15.39v-45.33h-12.8v-10.19h12.8v-18.19l11.93-3.86v22.04h18.77v10.19h-18.77v43.94c0,4.27.76,7.35,2.29,9.24,1.53,1.89,3.82,2.84,6.88,2.84,1.46,0,2.86-.17,4.22-.51,1.36-.34,2.5-.73,3.42-1.16l2.91,9.09Z"/>
  </g>
</svg>