<?xml version="1.0" encoding="UTF-8"?>
<svg id="Layer_2_copy_2" data-name="Layer 2 copy 2" xmlns="http://www.w3.org/2000/svg" viewBox="0 0 1009 1000">
  <defs>
    <style>
      .cls-1, .cls-2 {
        fill: none;
        stroke: #fff;
        stroke-linecap: round;
        stroke-linejoin: round;
        stroke-width: 7px;
      }

      .cls-2 {
        stroke-dasharray: 4.03 12.1;
      }

      .cls-3 {
        fill: #fff;
      }

      .cls-4 {
        fill: #00bf2b;
      }
    </style>
  </defs>
  <path class="cls-3" d="M911.87,135.28c-12.79-12.79-27.72-19.19-44.79-19.19H141.92c-17.07,0-32,6.4-44.79,19.19s-19.2,27.73-19.2,44.79v469.23c0,17.06,6.4,31.99,19.2,44.79,12.79,12.8,27.72,19.2,44.79,19.2h298.59v106.64h-91.71v63.98h311.4v-63.98h-91.71v-106.64h298.59c17.07,0,32-6.4,44.79-19.2,12.8-12.8,19.2-27.73,19.2-44.79V180.07c0-17.06-6.4-31.99-19.2-44.79ZM867.08,649.3H141.92V180.07h725.16v469.23Z"/>
  <path d="M867.08,181.62v469.23H141.92V181.62h725.16Z"/>
  <g>
    <path class="cls-1" d="M141.92,306.99s.15.7.45,1.94"/>
    <path class="cls-2" d="M145.68,320.56c7.81,24.16,28.42,70.19,67.79,49.21,52.38-27.91,232.29,114.42,305.17,102.56,72.88-11.87,230.07-218.09,293.78-165.35,0,0,16.21,42.84,48.64,73.36"/>
    <path class="cls-1" d="M865.56,384.41c.5.44,1.01.87,1.52,1.3"/>
  </g>
  <path class="cls-4" d="M566.18,601.66l-33.15-32.38,129.53-129.53h-404.78v-46.26h404.78l-130.3-130.3,33.15-32.38,185.81,185.81-185.04,185.04Z"/>
</svg>