<?xml version="1.0" encoding="UTF-8"?>
<svg id="Layer_3" data-name="Layer 3" xmlns="http://www.w3.org/2000/svg" viewBox="0 0 1009 1000">
  <defs>
    <style>
      .cls-1, .cls-2 {
        fill: none;
        stroke: #a7a9ac;
        stroke-linecap: round;
        stroke-linejoin: round;
        stroke-width: 7px;
      }

      .cls-3 {
        fill: #fff;
      }

      .cls-4 {
        fill: #00bf2b;
      }

      .cls-2 {
        stroke-dasharray: 4.03 12.1;
      }
    </style>
  </defs>
  <g>
    <path class="cls-3" d="M911.87,135.28c-12.79-12.79-27.72-19.19-44.79-19.19H141.92c-17.07,0-32,6.4-44.79,19.19s-19.2,27.73-19.2,44.79v469.23c0,17.06,6.4,31.99,19.2,44.79,12.79,12.8,27.72,19.2,44.79,19.2h298.59v106.64h-91.71v63.98h311.4v-63.98h-91.71v-106.64h298.59c17.07,0,32-6.4,44.79-19.2,12.8-12.8,19.2-27.73,19.2-44.79V180.07c0-17.06-6.4-31.99-19.2-44.79ZM867.08,649.3H141.92V180.07h725.16v469.23Z"/>
    <path d="M867.08,181.62v469.23H141.92V181.62h725.16Z"/>
    <g>
      <path class="cls-1" d="M141.92,306.99s.15.7.45,1.94"/>
      <path class="cls-2" d="M145.68,320.56c7.81,24.16,28.42,70.19,67.79,49.21,52.38-27.91,232.29,114.42,305.17,102.56,72.88-11.87,230.07-218.09,293.78-165.35,0,0,16.21,42.84,48.64,73.36"/>
      <path class="cls-1" d="M865.56,384.41c.5.44,1.01.87,1.52,1.3"/>
    </g>
    <path class="cls-4" d="M566.18,601.66l-33.15-32.38,129.53-129.53h-404.78v-46.26h404.78l-130.3-130.3,33.15-32.38,185.81,185.81-185.04,185.04Z"/>
  </g>
  <g>
    <path class="cls-3" d="M181.65,363.66v-107.13h29.62c18.9,0,33.07,4.35,42.52,13.04,9.45,8.69,14.17,21.75,14.17,39.19,0,16.54-5.25,29.82-15.75,39.86-10.5,10.04-24.55,15.05-42.15,15.05h-28.42ZM194.22,267.88v84.42h16.01c14.06,0,25.01-3.76,32.84-11.28,7.83-7.52,11.74-18.18,11.74-31.98s-3.65-24.04-10.96-30.89c-7.31-6.85-18.26-10.27-32.88-10.27h-16.75Z"/>
    <path class="cls-3" d="M348.98,328.17h-54.16c.2,8.62,2.48,15.25,6.84,19.91,4.36,4.66,10.48,6.98,18.36,6.98,3.44,0,6.89-.51,10.36-1.53,3.46-1.02,6.89-2.65,10.29-4.89l5.68,8.74c-4.34,2.79-8.68,4.83-13.02,6.13-4.34,1.29-9.1,1.94-14.29,1.94-11.57,0-20.6-3.44-27.08-10.31-6.48-6.87-9.75-16.46-9.8-28.76-.05-12.3,3.2-22.21,9.76-29.73,6.56-7.52,15.07-11.28,25.54-11.28s17.71,3.25,23.23,9.75c5.51,6.5,8.27,15.5,8.27,27.01v6.05ZM336.41,318.16c-.05-7.07-1.77-12.59-5.16-16.55-3.39-3.96-8.05-5.94-13.99-5.94s-10.78,2.03-14.85,6.09c-4.06,4.06-6.54,9.53-7.44,16.4h41.44Z"/>
    <path class="cls-3" d="M360.35,357.91l5.83-9.41c3.34,2.19,6.61,3.85,9.8,4.97,3.19,1.12,6.63,1.68,10.32,1.68,5.24,0,9.21-.97,11.93-2.91,2.72-1.94,4.08-4.86,4.08-8.74,0-3.14-1.21-5.79-3.63-7.96-2.42-2.17-6.2-3.9-11.33-5.19-9.58-2.44-16.13-5.52-19.67-9.23-3.54-3.71-5.31-8.28-5.31-13.71,0-6.28,2.37-11.52,7.11-15.73,4.74-4.21,11.34-6.31,19.82-6.31,4.09,0,7.98.52,11.67,1.57,3.69,1.05,7.45,2.84,11.29,5.38l-5.46,9.26c-3.49-2.19-6.62-3.72-9.39-4.59-2.77-.87-5.57-1.31-8.42-1.31-4.94,0-8.7.91-11.29,2.73-2.59,1.82-3.89,4.45-3.89,7.88s1.33,6.03,4,7.77c2.67,1.74,6.97,3.39,12.9,4.93,7.78,2.09,13.6,5.02,17.47,8.78,3.86,3.76,5.8,8.68,5.8,14.76,0,7.07-2.51,12.66-7.52,16.77s-11.88,6.16-20.61,6.16c-4.69,0-9.19-.65-13.5-1.94-4.31-1.29-8.32-3.16-12-5.6Z"/>
    <path class="cls-3" d="M496.11,363.66h-17.2l-33.81-36.76h-.3v36.76h-12.27v-113.26h12.27v71.8h.3l32.16-35.04h16.08l-35.53,36.91,38.3,39.6Z"/>
    <path class="cls-3" d="M172.38,539.05l6.13-9.41c4.39,2.84,8.78,4.91,13.17,6.2,4.39,1.3,9.5,1.94,15.33,1.94,6.53,0,11.9-1.53,16.12-4.59,4.21-3.06,6.32-7.53,6.32-13.41,0-5.23-1.78-9.41-5.35-12.55-3.57-3.14-9.41-6.18-17.54-9.12-10.07-3.63-17.54-7.73-22.4-12.29-4.86-4.56-7.29-10.57-7.29-18.04,0-8.77,3.15-15.86,9.46-21.29,6.31-5.43,14.6-8.14,24.87-8.14,4.79,0,9.47.51,14.06,1.53,4.59,1.02,9.32,2.68,14.21,4.97l-4.71,10.09c-4.09-1.89-8.07-3.26-11.93-4.11-3.87-.85-8.04-1.27-12.53-1.27-6.43,0-11.52,1.51-15.26,4.52-3.74,3.01-5.61,7.19-5.61,12.51,0,4.68,1.72,8.42,5.16,11.21,3.44,2.79,9.17,5.63,17.2,8.52,10.77,3.88,18.5,8.22,23.19,13,4.69,4.78,7.03,11.23,7.03,19.35,0,8.67-3.14,15.9-9.42,21.7-6.28,5.8-15.11,8.7-26.48,8.7-6.38,0-12.27-.8-17.65-2.39s-10.75-4.13-16.08-7.62Z"/>
    <path class="cls-3" d="M315.24,542.71c-3.54,2.19-7.08,3.8-10.62,4.82-3.54,1.02-7.41,1.53-11.59,1.53-10.77,0-19.61-3.34-26.52-10.01-6.91-6.67-10.36-16.14-10.36-28.39s3.48-22.51,10.43-30.18c6.96-7.67,16.52-11.51,28.69-11.51,3.94,0,7.69.47,11.26,1.42,3.56.95,7.17,2.49,10.81,4.63l-5.16,8.96c-2.84-1.59-5.64-2.76-8.38-3.51-2.74-.75-5.73-1.12-8.98-1.12-8.43,0-14.89,2.81-19.37,8.44-4.49,5.63-6.73,12.78-6.73,21.44,0,9.56,2.36,16.86,7.07,21.89,4.71,5.03,10.81,7.54,18.29,7.54,2.44,0,5-.38,7.67-1.16,2.67-.77,5.35-1.98,8.04-3.62l5.46,8.82Z"/>
    <path class="cls-3" d="M364.16,549.06c-11.32,0-20.36-3.57-27.12-10.72-6.76-7.15-10.14-16.62-10.14-28.43,0-12.8,3.49-22.81,10.47-30.03,6.98-7.22,16.51-10.86,28.57-10.91,11.42-.05,20.33,3.46,26.74,10.53,6.41,7.07,9.61,16.81,9.61,29.21s-3.45,22.04-10.36,29.36c-6.91,7.32-16.17,10.98-27.79,10.98ZM365.06,538.75c7.93,0,14.02-2.58,18.29-7.73,4.26-5.16,6.4-12.44,6.4-21.85s-2.14-17-6.43-22.15c-4.29-5.16-10.37-7.73-18.25-7.73s-14.11,2.69-18.7,8.07c-4.59,5.38-6.88,12.75-6.88,22.11s2.32,16.21,6.96,21.44c4.64,5.23,10.85,7.84,18.62,7.84Z"/>
    <path class="cls-3" d="M483.84,547.27h-12.27v-12.1h-.3c-2.54,4.63-5.79,8.11-9.72,10.42-3.94,2.32-8.58,3.47-13.91,3.47-9.13,0-15.97-2.71-20.53-8.14-4.56-5.43-6.84-13.57-6.84-24.43v-45.72h12.19v43.78c0,8.07,1.54,14.12,4.64,18.15,3.09,4.03,7.73,6.05,13.91,6.05s10.91-2.2,14.77-6.61c3.86-4.41,5.8-10.17,5.8-17.29v-44.08h12.27v76.5Z"/>
    <path class="cls-3" d="M545.1,546.37c-2.09.85-4.15,1.48-6.17,1.91-2.02.42-4.3.63-6.84.63-6.08,0-10.86-1.78-14.32-5.34-3.47-3.56-5.2-8.83-5.2-15.8v-46.54h-13.16v-10.46h13.16v-18.68l12.27-3.96v22.64h19.3v10.46h-19.3v45.12c0,4.38.79,7.55,2.36,9.49,1.57,1.94,3.93,2.91,7.07,2.91,1.5,0,2.94-.17,4.34-.52,1.4-.35,2.57-.75,3.52-1.2l2.99,9.34Z"/>
  </g>
</svg>